HIERARCHY
ROOT Hips
{
	OFFSET 0.00000 0.00000 0.00000
	CHANNELS 6 Xposition Yposition Zposition Zrotation Yrotation Xrotation 
	JOINT LHipJoint
	{
		OFFSET 0 0 0
		CHANNELS 3 Zrotation Yrotation Xrotation
		JOINT LeftHip
		{
			OFFSET 1.37590 -1.78394 0.89329
			CHANNELS 3 Zrotation Yrotation Xrotation
			JOINT LeftKnee
			{
				OFFSET 2.47928 -6.81178 0.00000
				CHANNELS 3 Zrotation Yrotation Xrotation
				JOINT LeftAnkle
				{
					OFFSET 2.63345 -7.23535 0.00000
					CHANNELS 3 Zrotation Yrotation Xrotation
					JOINT LeftToe
					{
						OFFSET 0.23938 -0.65768 2.27012
						CHANNELS 3 Zrotation Yrotation Xrotation
						End Site
						{
							OFFSET 0.00000 -0.00000 1.18363
						}
					}
				}
			}
		}
	}
	JOINT RHipJoint
	{
		OFFSET 0 0 0
		CHANNELS 3 Zrotation Yrotation Xrotation
		JOINT RightHip
		{
			OFFSET -1.33617 -1.78394 0.89329
			CHANNELS 3 Zrotation Yrotation Xrotation
			JOINT RightKnee
			{
				OFFSET -2.56922 -7.05888 0.00000
				CHANNELS 3 Zrotation Yrotation Xrotation
				JOINT RightAnkle
				{
					OFFSET -2.56568 -7.04915 0.00000
					CHANNELS 3 Zrotation Yrotation Xrotation
					JOINT RightToe
					{
						OFFSET -0.27533 -0.75646 2.18105
						CHANNELS 3 Zrotation Yrotation Xrotation
						End Site
						{
							OFFSET -0.00000 -0.00000 1.15233
						}
					}
				}
			}
		}
	}
	JOINT lowerback
	{
		OFFSET 0 0 0
		CHANNELS 3 Zrotation Yrotation Xrotation
		JOINT Chest
		{
			OFFSET 0.06190 2.15152 -0.00935
			CHANNELS 3 Zrotation Yrotation Xrotation
			JOINT Chest2
			{
				OFFSET 0.06334 2.15332 0.00872
				CHANNELS 3 Zrotation Yrotation Xrotation
				JOINT lowerneck
				{
					OFFSET 0 0 0
					CHANNELS 3 Zrotation Yrotation Xrotation
					JOINT Neck
					{
						OFFSET -0.04202 1.66908 0.23524
						CHANNELS 3 Zrotation Yrotation Xrotation
						JOINT Head
						{
							OFFSET 0.07510 1.69357 -0.24440
							CHANNELS 3 Zrotation Yrotation Xrotation
							End Site
							{
								OFFSET 0.02556 1.71719 -0.11000
							}
						}
					}
				}
				JOINT LeftCollar
				{
					OFFSET 0 0 0
					CHANNELS 3 Zrotation Yrotation Xrotation
					JOINT LeftShoulder
					{
						OFFSET 3.67168 1.26306 -0.41342
CHANNELS 3 Zrotation Xrotation Yrotation
						JOINT LeftElbow
						{
OFFSET 0 -4.685100 -0.000000
CHANNELS 3 Zrotation Xrotation Yrotation
							JOINT LeftWrist
							{
OFFSET 0 -3.396260 -0.000000
CHANNELS 3 Zrotation Xrotation Yrotation
								JOINT lhand
								{
									OFFSET 0 0 0
CHANNELS 3 Zrotation Xrotation Yrotation
									JOINT LFingers
									{
OFFSET 0 -0.486080 -0.000000
CHANNELS 3 Zrotation Xrotation Yrotation
										End Site
										{
OFFSET 0 -0.391890 -0.000000
										}
									}
								}
								JOINT LThumb
								{
OFFSET 0 0.000000 0.000000
CHANNELS 3 Zrotation Xrotation Yrotation
									End Site
									{
OFFSET 0 -0.397870 0.397870
									}
								}
							}
						}
					}
				}
				JOINT RightCollar
				{
					OFFSET 0 0 0
					CHANNELS 3 Zrotation Yrotation Xrotation
					JOINT RightShoulder
					{
						OFFSET -3.04136 1.42992 -0.76390
CHANNELS 3 Zrotation Xrotation Yrotation
						JOINT RightElbow
						{
OFFSET 0 -5.555760 -0.000000
CHANNELS 3 Zrotation Xrotation Yrotation
							JOINT RightWrist
							{
OFFSET 0 -3.327740 -0.000000
CHANNELS 3 Zrotation Xrotation Yrotation
								JOINT rhand
								{
									OFFSET 0 0 0
CHANNELS 3 Zrotation Xrotation Yrotation
									JOINT RFingers
									{
OFFSET 0 -0.507630 -0.000000
CHANNELS 3 Zrotation Xrotation Yrotation
										End Site
										{
OFFSET 0 -0.409260 -0.000000
										}
									}
								}
								JOINT RThumb
								{
OFFSET 0 0.000000 0.000000
CHANNELS 3 Zrotation Xrotation Yrotation
									End Site
									{
OFFSET 0 -0.415510 0.415510
									}
								}
							}
						}
					}
				}
			}
		}
	}
}
MOTION
Frames: 8
Frame Time: 0.008333333333333333
39.852600 17.551500 5.469100 -86.292600 -80.969600 96.252200 0.000000 0.000000 0.000000 -7.177000 -6.202600 -22.675400 4.923800 13.297500 40.492700 0.836300 -2.602600 -16.595700 0.181700 -2.745600 -7.571300 0.000000 0.000000 0.000000 32.841400 4.244300 -10.891300 -1.174100 -6.877700 19.353700 -0.000000 -0.000000 0.000000 -0.000000 -0.000000 0.000000 0.000000 0.000000 0.000000 0.000000 0.000000 0.000000 0.000000 0.000000 0.000000 0.000000 0.000000 0.000000 0.000000 0.000000 0.000000 0.000000 0.000000 0.000000 0.000000 0.000000 0.000000 90.000000 0.000000 0.000000 -0.000000 0.000000 0.000000 -0.000000 0.000000 -0.000000 0.000000 0.000000 0.000000 -0.000000 0.000000 -0.000000 0.000000 0.000000 -0.000000 0.000000 0.000000 0.000000 -90.000000 0.000000 -0.000000 0.000000 0.000000 -0.000000 0.000000 0.000000 -0.000000 0.000000 0.000000 0.000000 0.000000 -0.000000 0.000000 0.000000 0.000000 0.000000
39.809745 17.539046 5.453512 -86.265639 -80.803918 96.001594 0.000000 0.000000 0.000000 -6.824276 -6.160319 -24.018570 5.539951 13.964717 43.101419 0.783628 -1.978814 -16.171823 0.319824 -3.580171 -9.904650 0.000000 0.000000 0.000000 33.118489 4.112455 -10.500234 -1.164356 -6.850056 19.272057 0.000000 0.000000 0.000000 0.000000 0.000000 0.000000 0.000000 0.000000 0.000000 0.000000 0.000000 0.000000 0.000000 0.000000 0.000000 0.000000 0.000000 0.000000 0.000000 0.000000 0.000000 0.000000 0.000000 0.000000 0.000000 0.000000 0.000000 90.000000 0.000000 0.000000 0.000000 0.000000 0.000000 0.000000 0.000000 0.000000 0.000000 0.000000 0.000000 0.000000 0.000000 0.000000 0.000000 0.000000 0.000000 0.000000 0.000000 0.000000 -90.000000 0.000000 0.000000 0.000000 0.000000 0.000000 0.000000 0.000000 0.000000 0.000000 0.000000 0.000000 0.000000 0.000000 0.000000 0.000000 0.000000 0.000000
39.763153 17.528399 5.440670 -86.391872 -80.679359 95.935790 0.000000 0.000000 0.000000 -6.539787 -6.126983 -25.311366 6.111770 14.532247 45.422070 0.736192 -1.198148 -15.850127 0.598931 -4.953934 -13.777184 0.000000 0.000000 0.000000 33.355411 4.006644 -10.095540 -1.151141 -6.812286 19.160517 0.000000 0.000000 0.000000 0.000000 0.000000 0.000000 0.000000 0.000000 0.000000 0.000000 0.000000 0.000000 0.000000 0.000000 0.000000 0.000000 0.000000 0.000000 0.000000 0.000000 0.000000 0.000000 0.000000 0.000000 0.000000 0.000000 0.000000 90.000000 0.000000 0.000000 0.000000 0.000000 0.000000 0.000000 0.000000 0.000000 0.000000 0.000000 0.000000 0.000000 0.000000 0.000000 0.000000 0.000000 0.000000 0.000000 0.000000 0.000000 -90.000000 0.000000 0.000000 0.000000 0.000000 0.000000 0.000000 0.000000 0.000000 0.000000 0.000000 0.000000 0.000000 0.000000 0.000000 0.000000 0.000000 0.000000
39.711155 17.521208 5.425842 -86.260967 -80.515179 95.637783 0.000000 0.000000 0.000000 -6.191697 -6.061247 -26.594864 6.662895 15.038209 47.581942 0.703327 -0.646995 -15.639372 0.674960 -5.247550 -14.617323 0.000000 0.000000 0.000000 33.682583 3.961814 -9.622444 -1.131720 -6.756582 18.996182 0.000000 0.000000 0.000000 0.000000 0.000000 0.000000 0.000000 0.000000 0.000000 0.000000 0.000000 0.000000 0.000000 0.000000 0.000000 0.000000 0.000000 0.000000 0.000000 0.000000 0.000000 0.000000 0.000000 0.000000 0.000000 0.000000 0.000000 90.000000 0.000000 0.000000 0.000000 0.000000 0.000000 0.000000 0.000000 0.000000 0.000000 0.000000 0.000000 0.000000 0.000000 0.000000 0.000000 0.000000 0.000000 0.000000 0.000000 0.000000 -90.000000 0.000000 0.000000 0.000000 0.000000 0.000000 0.000000 0.000000 0.000000 0.000000 0.000000 0.000000 0.000000 0.000000 0.000000 0.000000 0.000000 0.000000
39.653459 17.516405 5.410765 -85.941624 -80.347035 95.203380 0.000000 0.000000 0.000000 -5.822119 -6.055813 -27.840471 7.161765 15.464588 49.479937 0.689093 -0.488625 -15.526872 0.802962 -5.716616 -15.965084 0.000000 0.000000 0.000000 34.013217 3.973558 -9.110227 -1.098976 -6.661160 18.715312 0.000000 0.000000 0.000000 0.000000 0.000000 0.000000 0.000000 0.000000 0.000000 0.000000 0.000000 0.000000 0.000000 0.000000 0.000000 0.000000 0.000000 0.000000 0.000000 0.000000 0.000000 0.000000 0.000000 0.000000 0.000000 0.000000 0.000000 90.000000 0.000000 0.000000 0.000000 0.000000 0.000000 0.000000 0.000000 0.000000 0.000000 0.000000 0.000000 0.000000 0.000000 0.000000 0.000000 0.000000 0.000000 0.000000 0.000000 0.000000 -90.000000 0.000000 0.000000 0.000000 0.000000 0.000000 0.000000 0.000000 0.000000 0.000000 0.000000 0.000000 0.000000 0.000000 0.000000 0.000000 0.000000 0.000000
39.592892 17.514038 5.396569 -86.180030 -80.180949 95.403854 0.000000 0.000000 0.000000 -5.454323 -5.979690 -29.108378 7.590978 15.809199 51.074229 0.718936 -1.203062 -15.657092 0.782744 -5.647886 -15.766363 0.000000 0.000000 0.000000 34.327626 4.050119 -8.671947 -1.075005 -6.590732 18.508403 0.000000 0.000000 0.000000 0.000000 0.000000 0.000000 0.000000 0.000000 0.000000 0.000000 0.000000 0.000000 0.000000 0.000000 0.000000 0.000000 0.000000 0.000000 0.000000 0.000000 0.000000 0.000000 0.000000 0.000000 0.000000 0.000000 0.000000 90.000000 0.000000 0.000000 0.000000 0.000000 0.000000 0.000000 0.000000 0.000000 0.000000 0.000000 0.000000 0.000000 0.000000 0.000000 0.000000 0.000000 0.000000 0.000000 0.000000 0.000000 -90.000000 0.000000 0.000000 0.000000 0.000000 0.000000 0.000000 0.000000 0.000000 0.000000 0.000000 0.000000 0.000000 0.000000 0.000000 0.000000 0.000000 0.000000
39.529916 17.515630 5.384715 -86.544509 -80.064168 95.776331 0.000000 0.000000 0.000000 -5.120865 -5.929829 -30.338309 7.912951 16.054777 52.248342 0.742630 -2.401302 -15.643511 0.678896 -5.268246 -14.675132 0.000000 0.000000 0.000000 34.569450 4.115689 -8.253074 -1.044117 -6.498269 18.237263 -0.025211 -0.008447 -0.537583 -0.057006 -0.267405 0.762185 0.232314 -0.016837 -0.033629 0.131103 -0.027973 -0.024468 0.004777 -0.016202 -0.007629 -0.202992 -0.060394 -0.720725 0.128740 -0.043265 0.483441 0.070919 -0.018461 0.270872 0.000000 0.000000 0.000000 87.024502 -0.068609 -0.086093 0.422917 -0.690633 0.081694 0.429625 1.127049 -0.607229 0.000000 0.000000 0.000000 -0.226002 0.000000 0.000000 -0.456257 1.556903 0.046824 0.000000 0.000000 0.000000 -87.214207 -0.174128 0.979962 -0.766280 -1.120680 -0.247343 -0.582469 0.585872 0.799903 0.000000 0.000000 0.000000 0.226002 0.000000 0.000000 0.388092 1.774736 -0.105388
39.460730 17.520557 5.374798 -86.358166 -80.039325 95.658758 0.000000 0.000000 0.000000 -4.892535 -5.957782 -31.514602 8.119428 16.206282 52.991681 0.733198 -3.297737 -15.397048 0.655547 -5.178014 -14.417105 0.000000 0.000000 0.000000 34.661048 4.150387 -7.804690 -0.989384 -6.330779 17.747287 -0.793191 -0.262369 -16.929425 -1.818932 -8.477674 24.175056 7.305751 -0.497275 -1.061442 4.109574 -0.836685 -0.764944 0.136506 -0.487418 -0.230927 -6.392023 -1.915243 -22.713612 4.065258 -1.382880 15.205865 2.233865 -0.589454 8.527237 0.000000 0.000000 0.000000 -3.807539 -2.101857 -2.802288 13.398827 -21.868419 2.600165 13.531363 35.339311 -19.133598 0.000000 0.000000 0.000000 -7.125000 0.000000 0.000000 -14.392675 49.071526 1.472839 0.000000 0.000000 0.000000 -2.168558 -5.503490 30.894539 -24.166595 -35.339923 -7.802770 -18.341368 18.475044 25.159811 0.000000 0.000000 0.000000 7.125000 0.000000 0.000000 12.229132 55.888413 -3.302235
